<svg xmlns="http://www.w3.org/2000/svg" version="1.1" xmlns:xlink="http://www.w3.org/1999/xlink" xmlns:svgjs="http://svgjs.dev/svgjs" width="100%" height="100%" viewBox="0 0 1000 600"><rect width="1000" height="600" x="0" y="0" fill="#e2d3f4"/><g><rect width="333.3333333333333" height="333.3333333333333" y="237.7763989744397" fill="#013dc4" transform="matrix(0.5799008297848544,0,0,0.5799008297848545,0,65.46317554519013)" x="215.55419921875"/><path d="M445.69465284995186 329.4430693866008L451.96720636664764 329.4430693866008L451.96720636664764 479.44306744321864L431.8122501429501 479.44306744321864L431.8122501429501 370.8673948953377L385.48450716430887 420.3473348189175L380.1034840966866 420.3473348189175L332.62948768352226 370.8673948953377L332.62948768352226 479.44306744321864L312.47453145982473 479.44306744321864L312.47453145982473 329.4430693866008L318.74708497652045 329.4430693866008L382.7780754439071 398.18643508480454L445.69465284995186 329.4430693866008Z " fill="#e2d3f4" transform="matrix(0.5799008297848544,0,0,0.5799008297848545,0,65.46317554519013)"/><path d="M654.0652561452107 329.44307162299987L654.0652561452107 329.44307162299987Q659.8301395558262 329.44307162299987 663.7016543953082 333.5124010893166Q667.5731692347902 337.58173055563344 667.5731692347902 342.9509847125792L667.5731692347902 342.9509847125792Q667.5731692347902 348.1224242426901 663.7016543953082 352.2765314062218Q659.8301395558262 356.45889780215856 654.0652561452107 356.45889780215856L654.0652561452107 356.45889780215856Q648.3003727345954 356.45889780215856 644.4288578951134 352.2765314062218Q640.5573430556315 348.1224242426901 640.5573430556315 342.9509847125792L640.5573430556315 342.9509847125792Q640.5573430556315 337.58173055563344 644.4288578951134 333.5124010893166Q648.3003727345954 329.44307162299987 654.0652561452107 329.44307162299987ZM632.220869496163 377.11639669019723L664.2103205785977 377.11639669019723L664.2103205785977 476.47585782609883L647.9047434809256 476.47585782609883L647.9047434809256 392.4329006536951L632.220869496163 392.4329006536951L632.220869496163 377.11639669019723ZM699.3648056903901 333.39936415969674L715.6703827880622 333.39936415969674L715.6703827880622 476.47585782609883L699.3648056903901 476.47585782609883L699.3648056903901 333.39936415969674ZM790.3877932668233 375.1382504218488L790.3877932668233 375.1382504218488Q805.6760379979162 375.1382504218488 815.8211024313032 381.49657771296876Q825.9379076322853 387.8549050040888 830.9963102327763 398.79122794481515Q836.0829720656723 409.6992916531365 836.0829720656723 423.4332786019557L836.0829720656723 423.4332786019557L836.0829720656723 433.15445454926805L759.7830445722325 433.15445454926805Q760.9699323332416 441.49092810873645 765.5479279828478 448.47095851276595Q770.0976644000493 455.42272968439045 777.4733240577484 459.49205915070723Q784.8207244830426 463.561388617024 794.3440858035201 463.561388617024L794.3440858035201 463.561388617024Q805.0825941174116 463.561388617024 814.4081408110544 458.10735676286333Q823.7619467371019 452.62506567629765 830.120274028222 446.06892375834286L830.120274028222 446.06892375834286L829.922459401387 463.7592032438589Q827.1247953932943 467.1503111324562 821.6707635391335 470.82401134510326Q816.216731684973 474.4977115577504 809.1519235837284 476.98452400938845Q802.087115482484 479.4430772286215 794.3440858035201 479.4430772286215L794.3440858035201 479.4430772286215Q779.253655699262 479.4430772286215 767.5260742511962 472.29349143016213Q755.7984928031306 465.14390563170275 749.1575731879607 453.3315464864221Q742.4883943403861 441.49092810873645 742.4883943403861 427.38957113865257L742.4883943403861 427.38957113865257Q742.4883943403861 413.2882141685687 748.6489070046712 401.3628180936681Q754.8094196689563 389.4374220187675 765.6327056800628 382.2878362203082Q776.4559916911692 375.1382504218488 790.3877932668233 375.1382504218488ZM790.3877932668233 391.0481982658512L790.3877932668233 391.0481982658512Q778.066767938253 391.0481982658512 770.0976644000493 399.2716348956998Q762.1568200942506 407.52333075795326 760.178673825902 419.250912206019L760.178673825902 419.250912206019L819.975209594835 419.250912206019Q818.9861364606606 409.5014770263017 814.5211777406741 403.3409643620165Q810.0562190206876 397.20871093013636 803.6978917295678 394.1284545979938Q797.3395644384477 391.0481982658512 790.3877932668233 391.0481982658512ZM892.5166591784127 375.1382504218488L892.5166591784127 375.1382504218488Q901.2487619915507 375.1382504218488 908.7939770436799 377.62506287348685Q916.3391920958088 380.11187532512486 919.7302999844062 382.68346547397783L919.7302999844062 382.68346547397783L919.7302999844062 400.17593033265905Q915.5479335884695 396.98263707089654 908.3983477900101 394.0154176683739Q901.2487619915507 391.0481982658512 893.7035469394218 391.0481982658512L893.7035469394218 391.0481982658512Q884.3497410133741 391.0481982658512 879.6869676665528 395.4001200562178Q875.0241943197316 399.78030107898934 875.0241943197316 404.5561113554306L875.0241943197316 404.5561113554306Q875.0241943197316 408.3145892652926 877.7088213982042 412.1861041047746Q880.3934484766773 416.0576189442565 887.147405021467 418.45965369867963L887.147405021467 418.45965369867963L903.8203521404039 424.42235173612994Q913.5697873201211 427.7852003923222 918.3455975965624 434.14352768344224Q923.0931486405987 440.5018549745622 923.0931486405987 449.0644023932705L923.0931486405987 449.0644023932705Q923.0931486405987 457.4008759527389 918.4303752937772 464.35264712436344Q913.7676019469559 471.30441829598794 905.5159060847025 475.3737477623047Q897.264210222449 479.4430772286215 886.5539611409624 479.4430772286215L886.5539611409624 479.4430772286215Q880.7890777303469 479.4430772286215 874.5155281364418 477.97359714356264Q868.2702377749417 476.47585782609883 863.2966128716657 474.3846746281305Q858.3229879683897 472.29349143016213 855.9492124463716 470.7109744154834L855.9492124463716 470.7109744154834L855.9492124463716 453.2185095568022Q858.7186172220593 455.2249150575556 863.8052790549552 457.7117275091937Q868.8636816554463 460.17028072842675 874.6285650660618 461.8658346727253Q880.3934484766773 463.561388617024 885.3670733799534 463.561388617024L885.3670733799534 463.561388617024Q894.6926200735959 463.561388617024 900.1466519277567 459.3790222210873Q905.6289430143224 455.2249150575556 905.6289430143224 449.0644023932705L905.6289430143224 449.0644023932705Q905.6289430143224 444.28859211682925 901.9552428016752 441.49092810873645Q898.281542589028 438.7215233330486 891.3015121849987 436.1499331841957L891.3015121849987 436.1499331841957L876.6067113344102 430.7806790272499Q865.0769445131793 426.4004980044783 861.3184666033173 419.75957838930856Q857.5317294610502 413.09039954173386 857.5317294610502 404.5561113554306L857.5317294610502 404.5561113554306Q857.5317294610502 391.8394567731906 867.0833500139327 383.4747239813172Q876.6067113344102 375.1382504218488 892.5166591784127 375.1382504218488ZM1061.3938320305595 340.1815799368914L1061.3938320305595 340.1815799368914Q1083.8599217925168 340.1815799368914 1099.4590180800644 349.3093120036992Q1115.058114367612 358.43704407050694 1123.2815509974607 374.03614035805464Q1131.5332468597142 389.63523664560233 1131.5332468597142 409.3036623994668L1131.5332468597142 409.3036623994668Q1131.5332468597142 429.0003473857363 1123.2815509974607 444.571184440879Q1115.058114367612 460.17028072842675 1099.4590180800644 469.32627202763945Q1083.8599217925168 478.45400409444727 1061.3938320305595 478.45400409444727L1061.3938320305595 478.45400409444727Q1047.6881043141452 478.45400409444727 1036.1583374929144 477.06930170660337Q1024.6285706716835 475.68459931875947 1012.5336192023531 473.50863842357614L1012.5336192023531 473.50863842357614L1012.5336192023531 345.1269456077625Q1024.6285706716835 342.9509847125792 1036.1583374929144 341.56628232473525Q1047.6881043141452 340.1815799368914 1061.3938320305595 340.1815799368914ZM1061.3938320305595 357.0523416826631L1061.3938320305595 357.0523416826631Q1054.2442462321 357.0523416826631 1046.1055872994666 357.56100786595266Q1037.966928366833 358.0414148168373 1030.393454082299 359.0587471834165L1030.393454082299 359.0587471834165L1030.393454082299 459.57683684792215Q1037.966928366833 460.3680953552615 1046.1055872994666 460.98979846817105Q1054.2442462321 461.58324234867564 1061.3938320305595 461.58324234867564L1061.3938320305595 461.58324234867564Q1077.5015945013968 461.58324234867564 1089.1161390198426 454.716248874266Q1100.7306835382883 447.8492553998564 1107.0042331321933 436.03689625457577Q1113.2495234936935 424.22453710929506 1113.2495234936935 409.3036623994668L1113.2495234936935 409.3036623994668Q1113.2495234936935 394.41104692204357 1107.0042331321933 382.5986877767629Q1100.7306835382883 370.75806939907727 1089.1161390198426 363.9193351570726Q1077.5015945013968 357.0523416826631 1061.3938320305595 357.0523416826631ZM1199.2988861668505 375.1382504218488L1199.2988861668505 375.1382504218488Q1207.833174353154 375.1382504218488 1216.678314095912 379.2075798881656Q1225.5234538386699 383.27690935448237 1231.88178112979 390.4264951529417L1231.88178112979 390.4264951529417L1231.88178112979 377.11639669019723L1248.1873582274623 377.11639669019723L1248.1873582274623 476.47585782609883L1231.88178112979 476.47585782609883L1231.88178112979 459.57683684792215Q1226.7103415996792 467.5459403861259 1217.865201856921 473.50863842357614Q1209.020062114163 479.4430772286215 1197.7163691521719 479.4430772286215L1197.7163691521719 479.4430772286215Q1184.999714569932 479.4430772286215 1174.4590208828754 472.99997224028664Q1163.9183271958186 466.5286080195467 1157.6730368343185 455.02710043072074Q1151.3994872404135 443.49733360948983 1151.3994872404135 428.3786442728268L1151.3994872404135 428.3786442728268Q1151.3994872404135 411.9035117807248 1157.6730368343185 399.97811570582417Q1163.9183271958186 388.0527196309236 1174.854650136545 381.60961464258867Q1185.7909730772712 375.1382504218488 1199.2988861668505 375.1382504218488ZM1202.2661055693734 391.0481982658512L1202.2661055693734 391.0481982658512Q1191.5558564878868 391.0481982658512 1184.0106414357576 396.389193190392Q1176.4371671512235 401.7584473473378 1172.3678376849068 410.2079578364261Q1168.29850821859 418.65746832551446 1168.29850821859 428.3786442728268L1168.29850821859 428.3786442728268Q1168.29850821859 437.93026482570923 1172.283059987692 445.9841460611279Q1176.2393525243888 454.00976806414155 1183.5019752524681 458.7855783405828Q1190.7645979805475 463.561388617024 1200.2879593010248 463.561388617024L1200.2879593010248 463.561388617024Q1209.4439506002377 463.561388617024 1216.5935363986969 458.7855783405828Q1223.7431221971563 454.00976806414155 1227.897229360688 445.5885168074582Q1232.0795957566247 437.13900631836987 1231.88178112979 426.5983126313132L1231.88178112979 426.5983126313132L1231.6839665029552 407.52333075795326Q1225.5234538386699 399.78030107898934 1218.4586457374255 395.4001200562178Q1211.422096868586 391.0481982658512 1202.2661055693734 391.0481982658512ZM1348.1120040114631 377.11639669019723L1367.5826151384929 377.11639669019723L1320.8983632054699 476.47585782609883L1310.7532987720826 476.47585782609883L1266.047193107408 377.11639669019723L1285.5178042344376 377.11639669019723L1315.529109048524 450.25129015427956L1348.1120040114631 377.11639669019723ZM1403.3588033631947 329.44307162299987L1403.3588033631947 329.44307162299987Q1409.1236867738103 329.44307162299987 1412.9952016132922 333.5124010893166Q1416.866716452774 337.58173055563344 1416.866716452774 342.9509847125792L1416.866716452774 342.9509847125792Q1416.866716452774 348.1224242426901 1412.9952016132922 352.2765314062218Q1409.1236867738103 356.45889780215856 1403.3588033631947 356.45889780215856L1403.3588033631947 356.45889780215856Q1397.5939199525792 356.45889780215856 1393.7224051130972 352.2765314062218Q1389.8508902736155 348.1224242426901 1389.8508902736155 342.9509847125792L1389.8508902736155 342.9509847125792Q1389.8508902736155 337.58173055563344 1393.7224051130972 333.5124010893166Q1397.5939199525792 329.44307162299987 1403.3588033631947 329.44307162299987ZM1381.5144167141468 377.11639669019723L1413.5038677965817 377.11639669019723L1413.5038677965817 476.47585782609883L1397.1982906989097 476.47585782609883L1397.1982906989097 392.4329006536951L1381.5144167141468 392.4329006536951L1381.5144167141468 377.11639669019723ZM1478.2740284687907 375.1382504218488L1478.2740284687907 375.1382504218488Q1487.0061312819287 375.1382504218488 1494.5513463340578 377.62506287348685Q1502.1248206185917 380.11187532512486 1505.4876692747841 382.68346547397783L1505.4876692747841 382.68346547397783L1505.4876692747841 400.17593033265905Q1501.3053028788474 396.98263707089654 1494.1557170803883 394.0154176683739Q1487.0061312819287 391.0481982658512 1479.4609162297995 391.0481982658512L1479.4609162297995 391.0481982658512Q1470.135369536157 391.0481982658512 1465.4443369569308 395.4001200562178Q1460.7815636101093 399.78030107898934 1460.7815636101093 404.5561113554306L1460.7815636101093 404.5561113554306Q1460.7815636101093 408.3145892652926 1463.4661906885822 412.1861041047746Q1466.1508177670553 416.0576189442565 1472.904774311845 418.45965369867963L1472.904774311845 418.45965369867963L1489.6059806631868 424.42235173612994Q1499.3271566104988 427.7852003923222 1504.1029668869403 434.14352768344224Q1508.8787771633813 440.5018549745622 1508.8787771633813 449.0644023932705L1508.8787771633813 449.0644023932705Q1508.8787771633813 457.4008759527389 1504.1877445841553 464.35264712436344Q1499.5249712373336 471.30441829598794 1491.2732753750804 475.3737477623047Q1483.049838745232 479.4430772286215 1472.3113304313404 479.4430772286215L1472.3113304313404 479.4430772286215Q1466.546447020725 479.4430772286215 1460.2728974268198 477.97359714356264Q1454.0276070653197 476.47585782609883 1449.053982162044 474.3846746281305Q1444.0803572587677 472.29349143016213 1441.7065817367495 470.7109744154834L1441.7065817367495 470.7109744154834L1441.7065817367495 453.2185095568022Q1444.4759865124372 455.2249150575556 1449.5626483453334 457.7117275091937Q1454.6210509458244 460.17028072842675 1460.3859343564397 461.8658346727253Q1466.1508177670553 463.561388617024 1471.1244426703313 463.561388617024L1471.1244426703313 463.561388617024Q1480.4499893639738 463.561388617024 1485.9040212181346 459.3790222210873Q1491.3863123047001 455.2249150575556 1491.3863123047001 449.0644023932705L1491.3863123047001 449.0644023932705Q1491.3863123047001 444.28859211682925 1487.7126120920532 441.49092810873645Q1484.0389118794062 438.7215233330486 1477.0871407077814 436.1499331841957L1477.0871407077814 436.1499331841957L1462.3640806247881 430.7806790272499Q1450.8343138035573 426.4004980044783 1447.0758358936953 419.75957838930856Q1443.2890987514281 413.09039954173386 1443.2890987514281 404.5561113554306L1443.2890987514281 404.5561113554306Q1443.2890987514281 391.8394567731906 1452.8407193043106 383.4747239813172Q1462.3640806247881 375.1382504218488 1478.2740284687907 375.1382504218488Z " fill="#013dc4" transform="matrix(0.5799008297848544,0,0,0.5799008297848545,0,65.46317554519013)"/></g></svg>